<svg xmlns="http://www.w3.org/2000/svg" xmlns:xlink="http://www.w3.org/1999/xlink" width="500" zoomAndPan="magnify" viewBox="0 0 375 374.999991" height="500" preserveAspectRatio="xMidYMid meet" version="1.0"><defs><clipPath id="deafdc316e"><path d="M 99.78125 113.019531 L 275.28125 113.019531 L 275.28125 262 L 99.78125 262 Z M 99.78125 113.019531 " clip-rule="nonzero"/></clipPath><clipPath id="37c22565a9"><path d="M 275.207031 179.222656 L 275.207031 175.742188 L 271.746094 175.363281 C 270.816406 175.265625 260.835938 174.265625 247.914062 176.207031 L 247.914062 150.804688 L 243.53125 151.363281 C 236.289062 152.304688 229.570312 153.691406 223.363281 155.484375 C 216.613281 141.164062 205.453125 127.636719 189.941406 115.070312 L 187.496094 113.082031 L 185.054688 115.070312 C 169.539062 127.636719 158.378906 141.164062 151.632812 155.484375 C 145.425781 153.691406 138.707031 152.304688 131.464844 151.363281 L 127.082031 150.804688 L 127.082031 176.207031 C 114.15625 174.265625 104.179688 175.265625 103.246094 175.363281 L 99.785156 175.742188 L 99.785156 179.222656 C 99.785156 207.796875 107.464844 229.546875 122.621094 243.886719 C 135.160156 255.746094 152.40625 261.933594 172.757812 261.933594 C 174.359375 261.933594 175.988281 261.886719 177.636719 261.820312 L 183.210938 261.820312 L 182.105469 257.027344 C 179.351562 245.101562 174.785156 216.285156 187.496094 192.800781 C 200.207031 216.285156 195.644531 245.101562 192.890625 257.027344 L 191.785156 261.820312 L 197.359375 261.820312 C 199.007812 261.886719 200.636719 261.933594 202.234375 261.933594 C 222.585938 261.933594 239.835938 255.746094 252.371094 243.886719 C 267.53125 229.546875 275.207031 207.796875 275.207031 179.222656 Z M 240.15625 159.695312 L 240.15625 177.691406 C 237.015625 178.417969 233.777344 179.328125 230.53125 180.484375 C 229.839844 174.445312 228.445312 168.507812 226.351562 162.699219 C 230.675781 161.488281 235.269531 160.472656 240.15625 159.695312 Z M 134.835938 159.695312 C 139.722656 160.472656 144.320312 161.492188 148.644531 162.703125 C 146.550781 168.511719 145.152344 174.445312 144.464844 180.488281 C 141.214844 179.332031 137.976562 178.421875 134.835938 177.695312 Z M 127.953125 238.246094 C 115.035156 226.035156 108.203125 207.421875 107.59375 182.878906 C 111.617188 182.753906 118.761719 182.820312 127.082031 184.207031 L 127.082031 207.242188 C 127.082031 224.859375 144.535156 242.46875 161.726562 253.457031 C 150.367188 251.964844 138.046875 247.804688 127.953125 238.246094 Z M 134.835938 207.246094 L 134.835938 185.835938 C 137.84375 186.613281 140.914062 187.570312 143.980469 188.765625 C 143.824219 212.066406 153.890625 231.953125 162.730469 244.875 C 147.558594 234.375 134.835938 219.550781 134.835938 207.246094 Z M 172.097656 244.515625 C 163.855469 233.414062 152.78125 214.515625 151.804688 192.363281 C 159.765625 196.648438 167.242188 202.832031 172.882812 211.714844 C 170.695312 223.59375 171.023438 235.199219 172.097656 244.515625 Z M 175.335938 201.785156 C 168.597656 193.382812 160.394531 187.570312 151.960938 183.578125 C 152.472656 177.292969 153.832031 171.128906 156.039062 165.085938 C 167.851562 169.429688 177.1875 175.636719 183.945312 183.683594 C 180.078125 189.445312 177.296875 195.582031 175.335938 201.785156 Z M 187.496094 176.003906 C 180.207031 168.289062 170.703125 162.253906 159.085938 157.9375 C 165.011719 145.722656 174.492188 134.085938 187.496094 123.109375 C 200.5 134.085938 209.984375 145.722656 215.910156 157.9375 C 204.289062 162.253906 194.789062 168.285156 187.496094 176.003906 Z M 191.046875 183.683594 C 197.804688 175.636719 207.144531 169.429688 218.949219 165.085938 C 221.164062 171.125 222.519531 177.292969 223.03125 183.578125 C 214.597656 187.570312 206.394531 193.382812 199.652344 201.785156 C 197.699219 195.582031 194.914062 189.445312 191.046875 183.683594 Z M 202.109375 211.714844 C 207.753906 202.835938 215.230469 196.648438 223.1875 192.363281 C 222.210938 214.519531 211.136719 233.414062 202.894531 244.515625 C 203.972656 235.199219 204.300781 223.59375 202.109375 211.714844 Z M 231.015625 188.765625 C 234.078125 187.570312 237.152344 186.613281 240.15625 185.835938 L 240.15625 207.246094 C 240.15625 219.550781 227.4375 234.375 212.261719 244.878906 C 221.105469 231.953125 231.167969 212.066406 231.015625 188.765625 Z M 247.042969 238.246094 C 236.949219 247.804688 224.621094 251.964844 213.269531 253.457031 C 230.460938 242.46875 247.914062 224.863281 247.914062 207.242188 L 247.914062 184.207031 C 256.234375 182.820312 263.378906 182.75 267.402344 182.878906 C 266.792969 207.417969 259.957031 226.035156 247.042969 238.246094 Z M 247.042969 238.246094 " clip-rule="nonzero"/></clipPath><linearGradient x1="3025" gradientTransform="matrix(0.320595, 0, 0, 0.320595, -782.303137, -684.440594)" y1="2487.629922" x2="3025" gradientUnits="userSpaceOnUse" y2="2951.929914" id="9677e0fe09"><stop stop-opacity="1" stop-color="rgb(68.238831%, 57.649231%, 44.309998%)" offset="0"/><stop stop-opacity="1" stop-color="rgb(68.238831%, 57.649231%, 44.309998%)" offset="0.125"/><stop stop-opacity="1" stop-color="rgb(68.238831%, 57.649231%, 44.309998%)" offset="0.15625"/><stop stop-opacity="1" stop-color="rgb(68.141174%, 57.566833%, 44.245911%)" offset="0.164062"/><stop stop-opacity="1" stop-color="rgb(67.907715%, 57.368469%, 44.094849%)" offset="0.171875"/><stop stop-opacity="1" stop-color="rgb(67.634583%, 57.138062%, 43.916321%)" offset="0.179687"/><stop stop-opacity="1" stop-color="rgb(67.36145%, 56.907654%, 43.739319%)" offset="0.1875"/><stop stop-opacity="1" stop-color="rgb(67.088318%, 56.677246%, 43.562317%)" offset="0.195312"/><stop stop-opacity="1" stop-color="rgb(66.815186%, 56.446838%, 43.385315%)" offset="0.203125"/><stop stop-opacity="1" stop-color="rgb(66.542053%, 56.214905%, 43.206787%)" offset="0.210937"/><stop stop-opacity="1" stop-color="rgb(66.268921%, 55.984497%, 43.029785%)" offset="0.21875"/><stop stop-opacity="1" stop-color="rgb(65.995789%, 55.754089%, 42.852783%)" offset="0.226562"/><stop stop-opacity="1" stop-color="rgb(65.722656%, 55.523682%, 42.675781%)" offset="0.234375"/><stop stop-opacity="1" stop-color="rgb(65.449524%, 55.293274%, 42.498779%)" offset="0.242188"/><stop stop-opacity="1" stop-color="rgb(65.176392%, 55.06134%, 42.320251%)" offset="0.25"/><stop stop-opacity="1" stop-color="rgb(64.903259%, 54.830933%, 42.14325%)" offset="0.257812"/><stop stop-opacity="1" stop-color="rgb(64.630127%, 54.600525%, 41.966248%)" offset="0.265625"/><stop stop-opacity="1" stop-color="rgb(64.356995%, 54.370117%, 41.789246%)" offset="0.273437"/><stop stop-opacity="1" stop-color="rgb(64.083862%, 54.139709%, 41.612244%)" offset="0.28125"/><stop stop-opacity="1" stop-color="rgb(63.81073%, 53.907776%, 41.433716%)" offset="0.289062"/><stop stop-opacity="1" stop-color="rgb(63.537598%, 53.677368%, 41.256714%)" offset="0.296875"/><stop stop-opacity="1" stop-color="rgb(63.264465%, 53.44696%, 41.079712%)" offset="0.304687"/><stop stop-opacity="1" stop-color="rgb(62.991333%, 53.216553%, 40.90271%)" offset="0.3125"/><stop stop-opacity="1" stop-color="rgb(62.718201%, 52.986145%, 40.725708%)" offset="0.320312"/><stop stop-opacity="1" stop-color="rgb(62.445068%, 52.754211%, 40.54718%)" offset="0.328125"/><stop stop-opacity="1" stop-color="rgb(62.171936%, 52.523804%, 40.370178%)" offset="0.335938"/><stop stop-opacity="1" stop-color="rgb(61.898804%, 52.293396%, 40.193176%)" offset="0.34375"/><stop stop-opacity="1" stop-color="rgb(61.625671%, 52.062988%, 40.016174%)" offset="0.351562"/><stop stop-opacity="1" stop-color="rgb(61.354065%, 51.832581%, 39.837646%)" offset="0.359375"/><stop stop-opacity="1" stop-color="rgb(61.080933%, 51.600647%, 39.660645%)" offset="0.367188"/><stop stop-opacity="1" stop-color="rgb(60.8078%, 51.370239%, 39.483643%)" offset="0.375"/><stop stop-opacity="1" stop-color="rgb(60.534668%, 51.139832%, 39.306641%)" offset="0.382812"/><stop stop-opacity="1" stop-color="rgb(60.261536%, 50.909424%, 39.129639%)" offset="0.390625"/><stop stop-opacity="1" stop-color="rgb(59.988403%, 50.679016%, 38.951111%)" offset="0.398437"/><stop stop-opacity="1" stop-color="rgb(59.715271%, 50.447083%, 38.774109%)" offset="0.40625"/><stop stop-opacity="1" stop-color="rgb(59.442139%, 50.216675%, 38.597107%)" offset="0.414062"/><stop stop-opacity="1" stop-color="rgb(59.169006%, 49.986267%, 38.420105%)" offset="0.421875"/><stop stop-opacity="1" stop-color="rgb(58.895874%, 49.755859%, 38.243103%)" offset="0.429688"/><stop stop-opacity="1" stop-color="rgb(58.622742%, 49.525452%, 38.064575%)" offset="0.4375"/><stop stop-opacity="1" stop-color="rgb(58.349609%, 49.293518%, 37.887573%)" offset="0.445312"/><stop stop-opacity="1" stop-color="rgb(58.076477%, 49.06311%, 37.710571%)" offset="0.453125"/><stop stop-opacity="1" stop-color="rgb(57.803345%, 48.832703%, 37.533569%)" offset="0.460938"/><stop stop-opacity="1" stop-color="rgb(57.530212%, 48.602295%, 37.356567%)" offset="0.46875"/><stop stop-opacity="1" stop-color="rgb(57.25708%, 48.371887%, 37.17804%)" offset="0.476563"/><stop stop-opacity="1" stop-color="rgb(56.983948%, 48.139954%, 37.001038%)" offset="0.484375"/><stop stop-opacity="1" stop-color="rgb(56.710815%, 47.909546%, 36.824036%)" offset="0.492187"/><stop stop-opacity="1" stop-color="rgb(56.437683%, 47.679138%, 36.647034%)" offset="0.5"/><stop stop-opacity="1" stop-color="rgb(56.164551%, 47.44873%, 36.468506%)" offset="0.507812"/><stop stop-opacity="1" stop-color="rgb(55.891418%, 47.218323%, 36.291504%)" offset="0.515625"/><stop stop-opacity="1" stop-color="rgb(55.618286%, 46.986389%, 36.114502%)" offset="0.523438"/><stop stop-opacity="1" stop-color="rgb(55.345154%, 46.755981%, 35.9375%)" offset="0.53125"/><stop stop-opacity="1" stop-color="rgb(55.072021%, 46.525574%, 35.760498%)" offset="0.539062"/><stop stop-opacity="1" stop-color="rgb(54.798889%, 46.295166%, 35.58197%)" offset="0.546875"/><stop stop-opacity="1" stop-color="rgb(54.525757%, 46.064758%, 35.404968%)" offset="0.554688"/><stop stop-opacity="1" stop-color="rgb(54.252625%, 45.832825%, 35.227966%)" offset="0.5625"/><stop stop-opacity="1" stop-color="rgb(53.979492%, 45.602417%, 35.050964%)" offset="0.570312"/><stop stop-opacity="1" stop-color="rgb(53.70636%, 45.372009%, 34.873962%)" offset="0.578125"/><stop stop-opacity="1" stop-color="rgb(53.433228%, 45.141602%, 34.695435%)" offset="0.585937"/><stop stop-opacity="1" stop-color="rgb(53.160095%, 44.911194%, 34.518433%)" offset="0.59375"/><stop stop-opacity="1" stop-color="rgb(52.886963%, 44.67926%, 34.341431%)" offset="0.601562"/><stop stop-opacity="1" stop-color="rgb(52.613831%, 44.448853%, 34.164429%)" offset="0.609375"/><stop stop-opacity="1" stop-color="rgb(52.340698%, 44.218445%, 33.987427%)" offset="0.617188"/><stop stop-opacity="1" stop-color="rgb(52.069092%, 43.988037%, 33.808899%)" offset="0.625"/><stop stop-opacity="1" stop-color="rgb(51.795959%, 43.757629%, 33.631897%)" offset="0.632812"/><stop stop-opacity="1" stop-color="rgb(51.522827%, 43.527222%, 33.454895%)" offset="0.640625"/><stop stop-opacity="1" stop-color="rgb(51.249695%, 43.295288%, 33.277893%)" offset="0.648437"/><stop stop-opacity="1" stop-color="rgb(50.976562%, 43.06488%, 33.099365%)" offset="0.65625"/><stop stop-opacity="1" stop-color="rgb(50.70343%, 42.834473%, 32.922363%)" offset="0.664062"/><stop stop-opacity="1" stop-color="rgb(50.430298%, 42.604065%, 32.745361%)" offset="0.671875"/><stop stop-opacity="1" stop-color="rgb(50.157166%, 42.373657%, 32.568359%)" offset="0.679687"/><stop stop-opacity="1" stop-color="rgb(49.884033%, 42.141724%, 32.391357%)" offset="0.6875"/><stop stop-opacity="1" stop-color="rgb(49.610901%, 41.911316%, 32.21283%)" offset="0.695312"/><stop stop-opacity="1" stop-color="rgb(49.337769%, 41.680908%, 32.035828%)" offset="0.703125"/><stop stop-opacity="1" stop-color="rgb(49.064636%, 41.4505%, 31.858826%)" offset="0.710938"/><stop stop-opacity="1" stop-color="rgb(48.791504%, 41.220093%, 31.681824%)" offset="0.71875"/><stop stop-opacity="1" stop-color="rgb(48.518372%, 40.988159%, 31.504822%)" offset="0.726562"/><stop stop-opacity="1" stop-color="rgb(48.245239%, 40.757751%, 31.326294%)" offset="0.734375"/><stop stop-opacity="1" stop-color="rgb(47.972107%, 40.527344%, 31.149292%)" offset="0.742188"/><stop stop-opacity="1" stop-color="rgb(47.698975%, 40.296936%, 30.97229%)" offset="0.75"/><stop stop-opacity="1" stop-color="rgb(47.425842%, 40.066528%, 30.795288%)" offset="0.757812"/><stop stop-opacity="1" stop-color="rgb(47.15271%, 39.834595%, 30.618286%)" offset="0.765625"/><stop stop-opacity="1" stop-color="rgb(46.879578%, 39.604187%, 30.439758%)" offset="0.773438"/><stop stop-opacity="1" stop-color="rgb(46.606445%, 39.373779%, 30.262756%)" offset="0.78125"/><stop stop-opacity="1" stop-color="rgb(46.333313%, 39.143372%, 30.085754%)" offset="0.789062"/><stop stop-opacity="1" stop-color="rgb(46.060181%, 38.912964%, 29.908752%)" offset="0.796875"/><stop stop-opacity="1" stop-color="rgb(45.787048%, 38.68103%, 29.730225%)" offset="0.804687"/><stop stop-opacity="1" stop-color="rgb(45.513916%, 38.450623%, 29.553223%)" offset="0.8125"/><stop stop-opacity="1" stop-color="rgb(45.240784%, 38.220215%, 29.376221%)" offset="0.820312"/><stop stop-opacity="1" stop-color="rgb(44.967651%, 37.989807%, 29.199219%)" offset="0.828125"/><stop stop-opacity="1" stop-color="rgb(44.694519%, 37.759399%, 29.022217%)" offset="0.835937"/><stop stop-opacity="1" stop-color="rgb(44.421387%, 37.527466%, 28.843689%)" offset="0.84375"/><stop stop-opacity="1" stop-color="rgb(44.148254%, 37.297058%, 28.666687%)" offset="0.851562"/><stop stop-opacity="1" stop-color="rgb(43.875122%, 37.06665%, 28.489685%)" offset="0.859375"/><stop stop-opacity="1" stop-color="rgb(43.60199%, 36.836243%, 28.312683%)" offset="0.867187"/><stop stop-opacity="1" stop-color="rgb(43.328857%, 36.605835%, 28.135681%)" offset="0.875"/><stop stop-opacity="1" stop-color="rgb(43.055725%, 36.373901%, 27.957153%)" offset="0.882812"/><stop stop-opacity="1" stop-color="rgb(42.784119%, 36.143494%, 27.780151%)" offset="0.890625"/><stop stop-opacity="1" stop-color="rgb(42.510986%, 35.913086%, 27.603149%)" offset="0.898437"/><stop stop-opacity="1" stop-color="rgb(42.237854%, 35.682678%, 27.426147%)" offset="0.90625"/><stop stop-opacity="1" stop-color="rgb(41.964722%, 35.452271%, 27.249146%)" offset="0.914062"/><stop stop-opacity="1" stop-color="rgb(41.691589%, 35.220337%, 27.070618%)" offset="0.921875"/><stop stop-opacity="1" stop-color="rgb(41.418457%, 34.989929%, 26.893616%)" offset="0.929688"/><stop stop-opacity="1" stop-color="rgb(41.145325%, 34.759521%, 26.716614%)" offset="0.9375"/><stop stop-opacity="1" stop-color="rgb(40.872192%, 34.529114%, 26.539612%)" offset="0.945312"/><stop stop-opacity="1" stop-color="rgb(40.59906%, 34.298706%, 26.361084%)" offset="0.953125"/><stop stop-opacity="1" stop-color="rgb(40.325928%, 34.066772%, 26.184082%)" offset="0.960938"/><stop stop-opacity="1" stop-color="rgb(40.052795%, 33.836365%, 26.00708%)" offset="0.96875"/><stop stop-opacity="1" stop-color="rgb(39.779663%, 33.605957%, 25.830078%)" offset="0.976562"/><stop stop-opacity="1" stop-color="rgb(39.506531%, 33.375549%, 25.653076%)" offset="0.984375"/><stop stop-opacity="1" stop-color="rgb(39.233398%, 33.145142%, 25.474548%)" offset="0.992187"/><stop stop-opacity="1" stop-color="rgb(38.960266%, 32.913208%, 25.297546%)" offset="1"/></linearGradient></defs><g clip-path="url(#deafdc316e)"><g clip-path="url(#37c22565a9)"><path fill="url(#9677e0fe09)" d="M 99.785156 113.082031 L 99.785156 261.933594 L 275.207031 261.933594 L 275.207031 113.082031 Z M 99.785156 113.082031 " fill-rule="nonzero"/></g></g></svg>