<svg xmlns="http://www.w3.org/2000/svg" xmlns:xlink="http://www.w3.org/1999/xlink" width="500" zoomAndPan="magnify" viewBox="0 0 375 374.999991" height="500" preserveAspectRatio="xMidYMid meet" version="1.0"><defs><clipPath id="e2d0a80ff3"><path d="M 179 48.78125 L 308.476562 48.78125 L 308.476562 273 L 179 273 Z M 179 48.78125 " clip-rule="nonzero"/></clipPath><clipPath id="d3e9b39f69"><path d="M 66.226562 49 L 269 49 L 269 326.28125 L 66.226562 326.28125 Z M 66.226562 49 " clip-rule="nonzero"/></clipPath><clipPath id="556cc7f7a2"><path d="M 233.613281 270.105469 C 214.796875 256.910156 193.089844 248.167969 174.941406 234.054688 C 156.792969 219.941406 142.058594 197.90625 145.792969 175.222656 C 147.917969 199.910156 166.585938 218.800781 187.03125 232.769531 C 212.300781 250.027344 224.339844 254.335938 224.339844 254.335938 C 235.320312 240.914062 237.050781 227.988281 235.269531 210.730469 C 233.515625 193.472656 224.613281 177.054688 211.136719 166.160156 C 196.996094 154.722656 178.847656 149.644531 162.902344 140.882812 C 149.722656 133.652344 137.210938 121.964844 133.851562 107.875 L 135.507812 125.949219 C 130.414062 112.777344 130.164062 97.773438 134.886719 84.425781 C 117.109375 99.878906 105.539062 122.335938 103.265625 145.808594 C 100.992188 169.28125 108.039062 193.523438 122.527344 212.117188 C 141.886719 236.953125 172.074219 250.148438 200.109375 264.4375 C 204.980469 266.914062 209.902344 269.539062 214.722656 272.308594 C 205.996094 274.664062 196.796875 275.902344 187.328125 275.902344 C 129.027344 275.875 81.730469 228.507812 81.730469 170.097656 C 81.730469 113.644531 125.886719 67.515625 181.519531 64.46875 C 181.269531 63.925781 181.046875 63.378906 180.777344 62.835938 L 181.890625 64.445312 C 182.78125 64.394531 183.667969 64.371094 184.558594 64.347656 C 180.972656 58.847656 176.5 53.921875 171.355469 49.835938 C 112.019531 57.683594 66.226562 108.542969 66.226562 170.097656 C 66.226562 237.101562 120.449219 291.402344 187.351562 291.402344 C 203.003906 291.402344 217.960938 288.429688 231.683594 283.007812 C 247.730469 294.347656 261.476562 308.214844 268.671875 326.265625 C 269.042969 303.261719 252.429688 283.304688 233.613281 270.105469 Z M 233.613281 270.105469 " clip-rule="nonzero"/></clipPath><linearGradient x1="14644.6201" gradientTransform="matrix(-0.247244, 0, 0, 0.247606, 3788.262114, 48.796389)" y1="4.199922" x2="14644.6201" gradientUnits="userSpaceOnUse" y2="1120.599888" id="5250bf73a9"><stop stop-opacity="1" stop-color="rgb(46.414185%, 66.595459%, 25.108337%)" offset="0"/><stop stop-opacity="1" stop-color="rgb(46.282959%, 66.441345%, 25.09613%)" offset="0.125"/><stop stop-opacity="1" stop-color="rgb(46.018982%, 66.136169%, 25.071716%)" offset="0.25"/><stop stop-opacity="1" stop-color="rgb(45.756531%, 65.829468%, 25.048828%)" offset="0.375"/><stop stop-opacity="1" stop-color="rgb(45.492554%, 65.522766%, 25.024414%)" offset="0.5"/><stop stop-opacity="1" stop-color="rgb(45.228577%, 65.216064%, 25%)" offset="0.625"/><stop stop-opacity="1" stop-color="rgb(44.966125%, 64.910889%, 24.977112%)" offset="0.75"/><stop stop-opacity="1" stop-color="rgb(44.702148%, 64.604187%, 24.952698%)" offset="0.875"/><stop stop-opacity="1" stop-color="rgb(44.439697%, 64.297485%, 24.928284%)" offset="1"/></linearGradient></defs><g clip-path="url(#e2d0a80ff3)"><path fill="#006838" d="M 187.550781 48.796875 C 188.269531 48.996094 189.011719 49.21875 189.726562 49.441406 C 186.761719 49.09375 183.792969 48.871094 180.800781 48.796875 C 192.917969 56.027344 202.335938 67.714844 206.8125 81.109375 L 196.527344 66.152344 C 202.929688 79.152344 200.753906 96.136719 195.242188 110.128906 C 190.714844 121.617188 184.335938 132.460938 179.589844 143.804688 C 194.054688 150.910156 209.628906 156.035156 222.140625 166.136719 C 228.617188 171.386719 234.03125 177.898438 238.113281 185.179688 C 242.488281 164.476562 242.316406 142.8125 230.347656 125.578125 C 247.707031 140.632812 250.449219 167.027344 245.503906 189.484375 C 244.910156 192.183594 244.21875 194.859375 243.476562 197.484375 C 244.863281 201.792969 245.800781 206.222656 246.273438 210.707031 C 246.839844 216.300781 247.039062 221.425781 246.691406 226.253906 C 258.855469 198.175781 272.726562 169.554688 271.789062 139.023438 C 271.242188 121.34375 265.457031 103.914062 255.542969 89.304688 C 278.4375 108.71875 292.953125 137.6875 292.953125 170.074219 C 292.953125 209.691406 271.21875 244.207031 239.027344 262.332031 C 240.832031 263.496094 242.613281 264.683594 244.367188 265.921875 C 247.1875 267.902344 249.929688 270.007812 252.601562 272.261719 C 286.175781 250.695312 308.453125 212.984375 308.453125 170.074219 C 308.476562 103.171875 254.355469 48.894531 187.550781 48.796875 Z M 187.550781 48.796875 " fill-opacity="1" fill-rule="nonzero"/></g><g clip-path="url(#d3e9b39f69)"><g clip-path="url(#556cc7f7a2)"><path fill="url(#5250bf73a9)" d="M 269.042969 49.835938 L 269.042969 326.265625 L 66.226562 326.265625 L 66.226562 49.835938 Z M 269.042969 49.835938 " fill-rule="nonzero"/></g></g></svg>